<?xml version="1.0" encoding="UTF-8" standalone="no"?><!DOCTYPE svg PUBLIC "-//W3C//DTD SVG 1.1//EN" "http://www.w3.org/Graphics/SVG/1.1/DTD/svg11.dtd"><svg width="100%" height="100%" viewBox="0 0 2257 1015" version="1.1" xmlns="http://www.w3.org/2000/svg" xmlns:xlink="http://www.w3.org/1999/xlink" xml:space="preserve" xmlns:serif="http://www.serif.com/" style="fill-rule:evenodd;clip-rule:evenodd;stroke-linejoin:round;stroke-miterlimit:1.41421;"><text x="330.706px" y="1014.61px" style="font-family:'BentonSans-Medium', 'BentonSans';font-weight:500;font-size:713.6px;fill:#328fcd;">AB<tspan x="1311.21px " y="1014.61px ">A</tspan>P</text><path d="M1601.1,400.366c-19.281,-211.954 -187.811,-379.809 -400.243,-398.637c-147.115,-13.04 -290.973,48.291 -383.2,163.369l71.281,56.9c73.137,-91.257 187.216,-139.892 303.878,-129.552c168.459,14.932 302.104,148.04 317.393,316.12l90.891,-8.2Z" style="fill:#5b7b93;"/><path d="M895.974,213.32c-152.872,-131.656 -381.217,-117.139 -510.023,32.424c-56.756,65.902 -87.001,150.697 -85.067,238.495l90.467,-0.028c-1.45,-65.848 21.233,-129.444 63.8,-178.871c96.604,-112.172 267.863,-123.06 382.517,-24.318l58.306,-67.702Z" style="fill:#5b7b93;"/><path d="M301.53,1014.9c-163.04,-0.677 -297.234,-131.112 -301.429,-295.192c-4.274,-167.14 127.954,-306.306 295.094,-310.579c4.953,-0.127 9.908,-0.132 14.861,-0.015l-1.78,75.713c-3.714,-0.088 -7.431,-0.084 -11.146,0.011c-125.355,3.205 -224.525,107.579 -221.32,232.934c3.205,125.355 107.579,224.526 232.934,221.321c8.442,-0.216 16.865,-0.902 25.23,-2.056l-32.444,77.863Zm32.823,-77.598l-0.057,-0.309l0.013,-0.002l0.044,0.311Z" style="fill:#5b7b93;"/></svg>